<?xml version="1.0" encoding="utf-8"?>
<!--Designed by Vexels.com - 2017 All Rights Reserved - https://vexels.com/terms-and-conditions/-->

<svg version="1.1" id="Capa_1" xmlns="http://www.w3.org/2000/svg" xmlns:xlink="http://www.w3.org/1999/xlink" x="0px" y="0px"
	 width="1200px" height="1200px" viewBox="0 0 1200 1200" enable-background="new 0 0 1200 1200" xml:space="preserve">
<g>
	<path fill="#2EBCBC" d="M1056.889,198.35h-36.063C810.412,198.35,810.412,50,600.004,50c-210.407,0-210.407,148.35-420.811,148.35
		h-36.083c-12.123,141.94,5.452,295.791,57.105,446.27C281.895,882.524,431.366,1061.557,600.004,1150
		c168.642-88.443,318.097-267.476,399.789-505.381C1051.449,494.141,1069.012,340.29,1056.889,198.35z M935.854,622.663
		c-68.316,198.974-189.578,360.748-335.849,449.683c-146.269-88.951-267.539-250.709-335.852-449.683
		c-39.963-116.391-59.344-238.823-56.9-357.522c108.91-6.484,170.805-50.115,221.303-85.71
		c48.991-34.545,87.678-61.83,171.449-61.83c83.771,0,122.468,27.285,171.449,61.83c50.502,35.595,112.393,79.226,221.301,85.693
		C995.193,383.84,975.813,506.272,935.854,622.663z"/>
	<path fill="#454545" d="M472.862,230.906c-1.767,1.244-3.522,2.472-5.361,3.765c-44.313,31.255-102.044,71.957-191.991,89.819
		c4.018,92.471,21.92,186.891,52.576,276.234C381.55,756.408,470.886,889.123,578.282,974.75
		C623.059,804.92,657.656,507.581,472.862,230.906z"/>
	<path fill="#2EBCBC" d="M732.508,234.671c-26.574-18.73-46.174-32.466-70.422-40.669
		c61.254,181.782,110.254,478.236-50.463,788.427c111.859-85.267,205.178-221.174,260.295-381.704
		c30.666-89.328,48.561-183.764,52.574-276.234C834.555,306.628,776.824,265.926,732.508,234.671z"/>
	<path fill="#393939" d="M539.833,941.334c12.528,11.788,25.354,22.971,38.448,33.416c44.777-169.83,79.375-467.169-105.42-743.844
		c-1.767,1.244-3.522,2.472-5.361,3.765c-22.733,16.037-49.046,34.537-81.384,51.188
		c152.071,182.429,201.965,364.374,179.14,541.195C559.731,869.886,550.137,908.688,539.833,941.334z"/>
	<path fill="#2DAAA7" d="M662.086,194.002c61.254,181.782,110.254,478.236-50.463,788.427c14.164-10.806,28.033-22.43,41.564-34.808
		c100.494-165.065,132.564-335.927,139.102-481.887c3.096-68.952,0.75-134.826-4.301-194.241
		c-20.938-12.492-39.129-25.296-55.48-36.822C705.934,215.94,686.334,202.205,662.086,194.002z"/>
	<path fill="#454545" d="M264.153,622.663c-39.963-116.391-59.344-238.823-56.9-357.522c108.91-6.484,170.805-50.115,221.303-85.71
		c48.991-34.545,87.678-61.83,171.449-61.83V50c-210.407,0-210.407,148.35-420.811,148.35h-36.083
		c-12.123,141.94,5.452,295.791,57.105,446.27C281.895,882.524,431.366,1061.557,600.004,1150v-77.654
		C453.736,983.395,332.465,821.637,264.153,622.663z"/>
</g>
</svg>
